# xmcd CD database file
#
# Track frame offsets:
#	150
#	12112
#	24097
#	37297
#	49942
#	61825
#	74410
#	85625
#	99107
#	109322
#	119565
#
# Disc length: 1766 seconds
#
# Revision: 2
# Processed by: cddbd v1.5.2PL0 Copyright (c) Steve Scherf et al.
# Submitted via: CDex 1.51
#
DISCID=8906e40b
DTITLE=Sam and Dave - Soul Men
DYEAR=1967
DGENRE=Soul
TTITLE0=Soul Man
TTITLE1=May I Baby
TTITLE2=Broke Down Piece Of Man
TTITLE3=Let It Be Me
TTITLE4=Hold It Baby
TTITLE5=I'm With You
TTITLE6=Don't Knock It
TTITLE7=Just Keep Holding On
TTITLE8=The Good Runs The Bad Way
TTITLE9=Rich Kind Of Poverty
TTITLE10=I've Seen What Loneliness Can Do
EXTD=YEAR: 1967
EXTT0=
EXTT1=
EXTT2=
EXTT3=
EXTT4=
EXTT5=
EXTT6=
EXTT7=
EXTT8=
EXTT9=
EXTT10=
PLAYORDER=
